<svg width="19" height="16" viewBox="0 0 19 16" fill="none" xmlns="http://www.w3.org/2000/svg">
<path d="M18.3854 8.00005C18.3854 8.19896 18.3063 8.38973 18.1657 8.53038C18.025 8.67103 17.8343 8.75005 17.6354 8.75005H2.94567L8.41598 14.2194C8.48566 14.2891 8.54094 14.3718 8.57865 14.4629C8.61636 14.5539 8.63577 14.6515 8.63577 14.7501C8.63577 14.8486 8.61636 14.9462 8.57865 15.0372C8.54094 15.1283 8.48566 15.211 8.41598 15.2807C8.3463 15.3504 8.26357 15.4056 8.17253 15.4433C8.08148 15.4811 7.9839 15.5005 7.88536 15.5005C7.78681 15.5005 7.68923 15.4811 7.59818 15.4433C7.50714 15.4056 7.42441 15.3504 7.35473 15.2807L0.604731 8.53068C0.534998 8.46102 0.479679 8.3783 0.441936 8.28726C0.404193 8.19621 0.384766 8.09861 0.384766 8.00005C0.384766 7.90149 0.404193 7.80389 0.441936 7.71285C0.479679 7.6218 0.534998 7.53908 0.604731 7.46943L7.35473 0.719426C7.49546 0.578695 7.68633 0.499634 7.88536 0.499634C8.08438 0.499634 8.27525 0.578695 8.41598 0.719426C8.55671 0.860156 8.63577 1.05103 8.63577 1.25005C8.63577 1.44907 8.55671 1.63995 8.41598 1.78068L2.94567 7.25005H17.6354C17.8343 7.25005 18.025 7.32907 18.1657 7.46972C18.3063 7.61037 18.3854 7.80114 18.3854 8.00005Z" fill="#888888"/>
</svg>
