<svg width="129" height="128" viewBox="0 0 129 128" fill="none" xmlns="http://www.w3.org/2000/svg">
<g filter="url(#filter0_d_2454_1517)">
<g clip-path="url(#clip0_2454_1517)">
<circle cx="64.3857" cy="64" r="60" fill="#EEEEEE"/>
<path d="M72.6357 55.75H56.1357C55.7379 55.75 55.3564 55.908 55.0751 56.1893C54.7938 56.4706 54.6357 56.8522 54.6357 57.25V70.75C54.6357 71.1478 54.7938 71.5294 55.0751 71.8107C55.3564 72.092 55.7379 72.25 56.1357 72.25H72.6357C73.0336 72.25 73.4151 72.092 73.6964 71.8107C73.9777 71.5294 74.1357 71.1478 74.1357 70.75V57.25C74.1357 56.8522 73.9777 56.4706 73.6964 56.1893C73.4151 55.908 73.0336 55.75 72.6357 55.75ZM72.6357 57.25V66.8828L70.1917 64.4397C70.0524 64.3004 69.887 64.1898 69.705 64.1144C69.523 64.039 69.3279 64.0002 69.1309 64.0002C68.9339 64.0002 68.7388 64.039 68.5568 64.1144C68.3748 64.1898 68.2094 64.3004 68.0701 64.4397L66.1951 66.3147L62.0701 62.1897C61.7888 61.9086 61.4075 61.7507 61.0098 61.7507C60.6122 61.7507 60.2308 61.9086 59.9495 62.1897L56.1357 66.0034V57.25H72.6357ZM56.1357 68.125L61.0107 63.25L68.5107 70.75H56.1357V68.125ZM72.6357 70.75H70.6323L67.2573 67.375L69.1323 65.5L72.6357 69.0044V70.75ZM65.8857 61.375C65.8857 61.1525 65.9517 60.935 66.0753 60.75C66.199 60.565 66.3747 60.4208 66.5802 60.3356C66.7858 60.2505 67.012 60.2282 67.2302 60.2716C67.4484 60.315 67.6489 60.4222 67.8062 60.5795C67.9636 60.7368 68.0707 60.9373 68.1141 61.1555C68.1575 61.3738 68.1353 61.6 68.0501 61.8055C67.965 62.0111 67.8208 62.1868 67.6358 62.3104C67.4508 62.434 67.2332 62.5 67.0107 62.5C66.7124 62.5 66.4262 62.3815 66.2152 62.1705C66.0043 61.9595 65.8857 61.6734 65.8857 61.375Z" fill="#888888"/>
</g>
<rect x="6.38574" y="6" width="116" height="116" rx="58" stroke="white" stroke-width="4" shape-rendering="crispEdges"/>
</g>
<defs>
<filter id="filter0_d_2454_1517" x="0.385742" y="0" width="128" height="128" filterUnits="userSpaceOnUse" color-interpolation-filters="sRGB">
<feFlood flood-opacity="0" result="BackgroundImageFix"/>
<feColorMatrix in="SourceAlpha" type="matrix" values="0 0 0 0 0 0 0 0 0 0 0 0 0 0 0 0 0 0 127 0" result="hardAlpha"/>
<feOffset/>
<feGaussianBlur stdDeviation="2"/>
<feComposite in2="hardAlpha" operator="out"/>
<feColorMatrix type="matrix" values="0 0 0 0 0 0 0 0 0 0 0 0 0 0 0 0 0 0 0.25 0"/>
<feBlend mode="normal" in2="BackgroundImageFix" result="effect1_dropShadow_2454_1517"/>
<feBlend mode="normal" in="SourceGraphic" in2="effect1_dropShadow_2454_1517" result="shape"/>
</filter>
<clipPath id="clip0_2454_1517">
<rect x="4.38574" y="4" width="120" height="120" rx="60" fill="white"/>
</clipPath>
</defs>
</svg>
