<svg width="25" height="25" viewBox="0 0 25 25" fill="none" xmlns="http://www.w3.org/2000/svg">
<path d="M5.44073 3.74563C5.37487 3.67138 5.29493 3.61095 5.20553 3.56783C5.11614 3.52471 5.01908 3.49976 4.91998 3.49443C4.82087 3.4891 4.72169 3.50349 4.62819 3.53677C4.53469 3.57005 4.44872 3.62156 4.37527 3.68831C4.30183 3.75506 4.24236 3.83572 4.20031 3.92562C4.15827 4.01552 4.13448 4.11288 4.13034 4.21204C4.1262 4.3112 4.14178 4.4102 4.17617 4.50329C4.21057 4.59639 4.26311 4.68173 4.33073 4.75438L6.13448 6.73906C2.72948 8.82875 1.26511 12.05 1.20042 12.1963C1.15778 12.2922 1.13574 12.396 1.13574 12.5009C1.13574 12.6059 1.15778 12.7097 1.20042 12.8056C1.23323 12.8797 2.0273 14.6403 3.79261 16.4056C6.1448 18.7569 9.11573 20 12.3857 20C14.0663 20.0096 15.7299 19.6636 17.2673 18.9847L19.3298 21.2544C19.3957 21.3286 19.4756 21.3891 19.565 21.4322C19.6544 21.4753 19.7514 21.5002 19.8506 21.5056C19.9497 21.5109 20.0488 21.4965 20.1423 21.4632C20.2358 21.43 20.3218 21.3784 20.3953 21.3117C20.4687 21.2449 20.5282 21.1643 20.5702 21.0744C20.6123 20.9845 20.636 20.8871 20.6402 20.788C20.6443 20.6888 20.6288 20.5898 20.5944 20.4967C20.56 20.4036 20.5074 20.3183 20.4398 20.2456L5.44073 3.74563ZM9.87792 10.8556L13.7845 15.1541C13.1962 15.4636 12.5218 15.5689 11.8671 15.4535C11.2125 15.3382 10.6147 15.0087 10.1676 14.5168C9.72055 14.0248 9.44952 13.3984 9.39708 12.7357C9.34464 12.073 9.51378 11.4117 9.87792 10.8556ZM12.3857 18.5C9.50011 18.5 6.97917 17.4509 4.8923 15.3828C4.03572 14.5315 3.30719 13.5605 2.72948 12.5C3.16917 11.6759 4.57261 9.36969 7.16855 7.87063L8.85605 9.72219C8.20274 10.5589 7.86627 11.5997 7.90611 12.6605C7.94595 13.7213 8.35954 14.7339 9.07377 15.5192C9.788 16.3046 10.7569 16.8122 11.8092 16.9522C12.8614 17.0923 13.9294 16.8559 14.8242 16.2847L16.2051 17.8034C14.9864 18.271 13.6911 18.5072 12.3857 18.5ZM12.9482 9.55344C12.7528 9.51614 12.5802 9.40274 12.4684 9.23818C12.3566 9.07361 12.3147 8.87137 12.352 8.67594C12.3893 8.48051 12.5027 8.3079 12.6672 8.19608C12.8318 8.08426 13.0341 8.04239 13.2295 8.07969C14.1854 8.265 15.0557 8.75436 15.7108 9.47477C16.3658 10.1952 16.7704 11.108 16.8642 12.0772C16.8827 12.2752 16.8218 12.4725 16.6948 12.6257C16.5679 12.7788 16.3853 12.8752 16.1873 12.8938C16.1639 12.8951 16.1404 12.8951 16.117 12.8938C15.9295 12.8946 15.7486 12.8251 15.6097 12.6992C15.4709 12.5732 15.3843 12.3998 15.367 12.2131C15.3039 11.5685 15.0344 10.9615 14.5986 10.4823C14.1628 10.0031 13.584 9.67731 12.9482 9.55344ZM23.5682 12.8056C23.5289 12.8938 22.5792 14.9966 20.4407 16.9119C20.3677 16.9794 20.2819 17.0317 20.1884 17.0658C20.0949 17.0998 19.9956 17.1149 19.8962 17.1102C19.7968 17.1055 19.6994 17.0811 19.6095 17.0384C19.5197 16.9956 19.4392 16.9354 19.3729 16.8613C19.3065 16.7872 19.2556 16.7006 19.223 16.6066C19.1904 16.5125 19.1769 16.413 19.1832 16.3137C19.1895 16.2144 19.2155 16.1173 19.2596 16.0282C19.3038 15.939 19.3652 15.8595 19.4404 15.7944C20.4895 14.8518 21.3708 13.7378 22.0467 12.5C21.4677 11.4385 20.7376 10.4668 19.8792 9.61531C17.7923 7.54906 15.2714 6.5 12.3857 6.5C11.7777 6.49926 11.1707 6.54849 10.5707 6.64719C10.4732 6.66444 10.3732 6.66219 10.2765 6.64058C10.1798 6.61896 10.0883 6.57839 10.0074 6.52123C9.92649 6.46407 9.85769 6.39144 9.805 6.30754C9.7523 6.22363 9.71675 6.13012 9.70041 6.0324C9.68406 5.93469 9.68723 5.8347 9.70975 5.73821C9.73226 5.64173 9.77367 5.55066 9.83158 5.47027C9.88949 5.38988 9.96276 5.32176 10.0471 5.26985C10.1315 5.21794 10.2254 5.18326 10.3232 5.16781C11.0049 5.05525 11.6948 4.99912 12.3857 5C15.6557 5 18.6267 6.24313 20.9789 8.59531C22.7442 10.3606 23.5382 12.1222 23.571 12.1963C23.6137 12.2922 23.6357 12.396 23.6357 12.5009C23.6357 12.6059 23.6137 12.7097 23.571 12.8056H23.5682Z" fill="#333333"/>
</svg>
