<svg width="31" height="21" viewBox="0 0 31 21" fill="none" xmlns="http://www.w3.org/2000/svg">
<g clip-path="url(#clip0_2454_1583)">
<path d="M0.385742 0.5H30.3857V20.5H0.385742V0.5Z" fill="white"/>
<path d="M0.385742 0.5H30.3857V7.16667H0.385742V0.5Z" fill="#FF6820"/>
<path d="M0.385742 13.8333H30.3857V20.4999H0.385742V13.8333Z" fill="#046A38"/>
<path d="M15.3861 13.5834C17.0889 13.5834 18.4694 12.203 18.4694 10.5001C18.4694 8.7972 17.0889 7.41675 15.3861 7.41675C13.6832 7.41675 12.3027 8.7972 12.3027 10.5001C12.3027 12.203 13.6832 13.5834 15.3861 13.5834Z" fill="#07038D"/>
<path d="M15.3854 13.1666C16.8582 13.1666 18.0521 11.9727 18.0521 10.4999C18.0521 9.02716 16.8582 7.83325 15.3854 7.83325C13.9127 7.83325 12.7188 9.02716 12.7188 10.4999C12.7188 11.9727 13.9127 13.1666 15.3854 13.1666Z" fill="white"/>
<path d="M15.3859 11.0332C15.6804 11.0332 15.9192 10.7944 15.9192 10.4999C15.9192 10.2053 15.6804 9.96655 15.3859 9.96655C15.0913 9.96655 14.8525 10.2053 14.8525 10.4999C14.8525 10.7944 15.0913 11.0332 15.3859 11.0332Z" fill="#07038D"/>
<path d="M15.3861 7.83325L15.4861 9.43795L15.3861 10.2325L15.2861 9.43795L15.3861 7.83325Z" fill="#07038D"/>
<path d="M15.719 7.97166C15.7829 7.98007 15.8415 7.9351 15.8499 7.87122C15.8583 7.80734 15.8133 7.74874 15.7495 7.74033C15.6856 7.73192 15.627 7.77688 15.6186 7.84077C15.6102 7.90465 15.6551 7.96325 15.719 7.97166Z" fill="#07038D"/>
<path d="M15.3863 13.1665L15.2863 11.5618L15.3863 10.7673L15.4863 11.5618L15.3863 13.1665Z" fill="#07038D"/>
<path d="M15.0535 13.0281C14.9896 13.0197 14.931 13.0647 14.9226 13.1285C14.9142 13.1924 14.9591 13.251 15.023 13.2594C15.0869 13.2678 15.1455 13.2229 15.1539 13.159C15.1623 13.0951 15.1173 13.0365 15.0535 13.0281Z" fill="#07038D"/>
<path d="M16.0761 7.92432L15.7574 9.50022L15.4551 10.2418L15.5642 9.44846L16.0761 7.92432Z" fill="#07038D"/>
<path d="M16.3622 8.14425C16.4218 8.16891 16.49 8.14064 16.5147 8.08111C16.5393 8.02158 16.5111 7.95334 16.4515 7.92868C16.392 7.90402 16.3238 7.93229 16.2991 7.99182C16.2744 8.05135 16.3027 8.11959 16.3622 8.14425Z" fill="#07038D"/>
<path d="M14.6964 13.0757L15.0151 11.4998L15.3173 10.7582L15.2083 11.5515L14.6964 13.0757Z" fill="#07038D"/>
<path d="M14.4102 12.8557C14.3507 12.8311 14.2824 12.8594 14.2578 12.9189C14.2331 12.9784 14.2614 13.0467 14.3209 13.0713C14.3805 13.096 14.4487 13.0677 14.4734 13.0082C14.498 12.9487 14.4697 12.8804 14.4102 12.8557Z" fill="#07038D"/>
<path d="M16.7184 8.19063L16.0027 9.63033L15.5188 10.2684L15.8295 9.53033L16.7184 8.19063Z" fill="#07038D"/>
<path d="M16.9368 8.47709C16.988 8.51631 17.0612 8.50667 17.1004 8.45555C17.1396 8.40443 17.13 8.33119 17.0789 8.29197C17.0278 8.25274 16.9545 8.26239 16.9153 8.31351C16.8761 8.36462 16.8857 8.43786 16.9368 8.47709Z" fill="#07038D"/>
<path d="M14.0511 12.8096L14.7668 11.3699L15.2507 10.7318L14.94 11.4699L14.0511 12.8096Z" fill="#07038D"/>
<path d="M13.8327 12.5232C13.7816 12.4839 13.7083 12.4936 13.6691 12.5447C13.6299 12.5958 13.6395 12.6691 13.6906 12.7083C13.7418 12.7475 13.815 12.7379 13.8542 12.6867C13.8934 12.6356 13.8838 12.5624 13.8327 12.5232Z" fill="#07038D"/>
<path d="M17.2709 8.61466L16.2069 9.82006L15.5744 10.3112L16.0655 9.67864L17.2709 8.61466Z" fill="#07038D"/>
<path d="M17.4084 8.94798C17.4476 8.9991 17.5208 9.00874 17.5719 8.96952C17.6231 8.93029 17.6327 8.85706 17.5935 8.80594C17.5543 8.75482 17.481 8.74518 17.4299 8.7844C17.3788 8.82363 17.3691 8.89686 17.4084 8.94798Z" fill="#07038D"/>
<path d="M13.4996 12.3858L14.5636 11.1804L15.1961 10.6893L14.705 11.3219L13.4996 12.3858Z" fill="#07038D"/>
<path d="M13.3621 12.0525C13.3229 12.0014 13.2497 11.9917 13.1986 12.031C13.1474 12.0702 13.1378 12.1434 13.177 12.1946C13.2162 12.2457 13.2895 12.2553 13.3406 12.2161C13.3917 12.1769 13.4014 12.1036 13.3621 12.0525Z" fill="#07038D"/>
<path d="M17.6945 9.16644L16.3548 10.0554L15.6167 10.366L16.2548 9.88218L17.6945 9.16644Z" fill="#07038D"/>
<path d="M17.7412 9.52398C17.7658 9.58351 17.8341 9.61178 17.8936 9.58712C17.9531 9.56247 17.9814 9.49422 17.9568 9.43469C17.9321 9.37516 17.8639 9.34689 17.8043 9.37155C17.7448 9.39621 17.7165 9.46445 17.7412 9.52398Z" fill="#07038D"/>
<path d="M13.076 11.8333L14.4157 10.9444L15.1538 10.6337L14.5157 11.1176L13.076 11.8333Z" fill="#07038D"/>
<path d="M13.0293 11.4758C13.0047 11.4162 12.9364 11.388 12.8769 11.4126C12.8174 11.4373 12.7891 11.5055 12.8138 11.5651C12.8384 11.6246 12.9067 11.6529 12.9662 11.6282C13.0257 11.6035 13.054 11.5353 13.0293 11.4758Z" fill="#07038D"/>
<path d="M17.9605 9.80973L16.4363 10.3216L15.643 10.4307L16.3846 10.1285L17.9605 9.80973Z" fill="#07038D"/>
<path d="M17.9128 10.1669C17.9212 10.2308 17.9798 10.2757 18.0437 10.2673C18.1076 10.2589 18.1525 10.2003 18.1441 10.1364C18.1357 10.0725 18.0771 10.0276 18.0132 10.036C17.9494 10.0444 17.9044 10.103 17.9128 10.1669Z" fill="#07038D"/>
<path d="M12.8091 11.19L14.3332 10.6781L15.1265 10.5691L14.385 10.8713L12.8091 11.19Z" fill="#07038D"/>
<path d="M12.8567 10.8329C12.8483 10.769 12.7897 10.724 12.7258 10.7324C12.662 10.7408 12.617 10.7995 12.6254 10.8633C12.6338 10.9272 12.6924 10.9722 12.7563 10.9638C12.8202 10.9554 12.8651 10.8968 12.8567 10.8329Z" fill="#07038D"/>
<path d="M18.0527 10.4999L16.448 10.5999L15.6535 10.4999L16.448 10.3999L18.0527 10.4999Z" fill="#07038D"/>
<path d="M17.9146 10.8328C17.9062 10.8967 17.9511 10.9553 18.015 10.9637C18.0789 10.9721 18.1375 10.9271 18.1459 10.8632C18.1543 10.7993 18.1093 10.7407 18.0455 10.7323C17.9816 10.7239 17.923 10.7689 17.9146 10.8328Z" fill="#07038D"/>
<path d="M12.7197 10.4999L14.3244 10.3999L15.1189 10.4999L14.3244 10.5999L12.7197 10.4999Z" fill="#07038D"/>
<path d="M12.8579 10.167C12.8663 10.1031 12.8213 10.0445 12.7575 10.0361C12.6936 10.0277 12.635 10.0726 12.6266 10.1365C12.6181 10.2004 12.6631 10.259 12.727 10.2674C12.7909 10.2758 12.8495 10.2309 12.8579 10.167Z" fill="#07038D"/>
<path d="M17.9624 11.1899L16.3865 10.8711L15.6449 10.5689L16.4383 10.6779L17.9624 11.1899Z" fill="#07038D"/>
<path d="M17.7427 11.4755C17.7181 11.5351 17.7463 11.6033 17.8059 11.628C17.8654 11.6526 17.9336 11.6243 17.9583 11.5648C17.9829 11.5053 17.9547 11.437 17.8951 11.4124C17.8356 11.3877 17.7674 11.416 17.7427 11.4755Z" fill="#07038D"/>
<path d="M12.811 9.80966L14.3869 10.1284L15.1285 10.4306L14.3352 10.3216L12.811 9.80966Z" fill="#07038D"/>
<path d="M13.0307 9.52399C13.0554 9.46446 13.0271 9.39621 12.9676 9.37156C12.9081 9.3469 12.8398 9.37517 12.8152 9.43469C12.7905 9.49422 12.8188 9.56247 12.8783 9.58713C12.9378 9.61178 13.0061 9.58352 13.0307 9.52399Z" fill="#07038D"/>
<path d="M17.6961 11.8334L16.2564 11.1177L15.6183 10.6338L16.3564 10.9445L17.6961 11.8334Z" fill="#07038D"/>
<path d="M17.4099 12.0523C17.3707 12.1034 17.3803 12.1767 17.4314 12.2159C17.4825 12.2551 17.5558 12.2455 17.595 12.1944C17.6342 12.1432 17.6246 12.07 17.5735 12.0308C17.5223 11.9916 17.4491 12.0012 17.4099 12.0523Z" fill="#07038D"/>
<path d="M13.0773 9.16657L14.5171 9.88232L15.1551 10.3662L14.4171 10.0555L13.0773 9.16657Z" fill="#07038D"/>
<path d="M13.3636 8.94768C13.4028 8.89656 13.3931 8.82332 13.342 8.7841C13.2909 8.74488 13.2177 8.75452 13.1784 8.80564C13.1392 8.85675 13.1489 8.92999 13.2 8.96922C13.2511 9.00844 13.3243 8.9988 13.3636 8.94768Z" fill="#07038D"/>
<path d="M17.273 12.3859L16.0676 11.3219L15.5765 10.6894L16.2091 11.1805L17.273 12.3859Z" fill="#07038D"/>
<path d="M16.9392 12.5234C16.8881 12.5626 16.8785 12.6358 16.9177 12.6869C16.9569 12.7381 17.0302 12.7477 17.0813 12.7085C17.1324 12.6692 17.142 12.596 17.1028 12.5449C17.0636 12.4938 16.9903 12.4841 16.9392 12.5234Z" fill="#07038D"/>
<path d="M13.5014 8.61459L14.7068 9.67857L15.1979 10.3111L14.5654 9.81999L13.5014 8.61459Z" fill="#07038D"/>
<path d="M13.8352 8.47713C13.8863 8.43791 13.8959 8.36467 13.8567 8.31355C13.8175 8.26243 13.7443 8.25279 13.6931 8.29201C13.642 8.33124 13.6324 8.40448 13.6716 8.4556C13.7108 8.50671 13.7841 8.51636 13.8352 8.47713Z" fill="#07038D"/>
<path d="M16.72 12.8095L15.8311 11.4698L15.5204 10.7317L16.0043 11.3698L16.72 12.8095Z" fill="#07038D"/>
<path d="M16.3625 12.8559C16.303 12.8806 16.2747 12.9488 16.2994 13.0084C16.324 13.0679 16.3923 13.0962 16.4518 13.0715C16.5113 13.0468 16.5396 12.9786 16.5149 12.9191C16.4903 12.8595 16.422 12.8313 16.3625 12.8559Z" fill="#07038D"/>
<path d="M14.0524 8.19048L14.9414 9.53019L15.252 10.2683L14.7682 9.63019L14.0524 8.19048Z" fill="#07038D"/>
<path d="M14.41 8.14407C14.4695 8.11941 14.4978 8.05117 14.4731 7.99164C14.4485 7.93211 14.3802 7.90384 14.3207 7.9285C14.2611 7.95316 14.2329 8.0214 14.2575 8.08093C14.2822 8.14046 14.3504 8.16873 14.41 8.14407Z" fill="#07038D"/>
<path d="M16.0753 13.0759L15.5634 11.5518L15.4543 10.7585L15.7565 11.5L16.0753 13.0759Z" fill="#07038D"/>
<path d="M15.7181 13.0285C15.6543 13.0369 15.6093 13.0955 15.6177 13.1594C15.6261 13.2233 15.6847 13.2683 15.7486 13.2599C15.8125 13.2514 15.8574 13.1928 15.849 13.129C15.8406 13.0651 15.782 13.0201 15.7181 13.0285Z" fill="#07038D"/>
<path d="M14.6962 7.92456L15.2081 9.44869L15.3172 10.242L15.0149 9.50046L14.6962 7.92456Z" fill="#07038D"/>
<path d="M15.0534 7.97197C15.1172 7.96356 15.1622 7.90495 15.1538 7.84107C15.1454 7.77719 15.0868 7.73222 15.0229 7.74063C14.959 7.74904 14.914 7.80765 14.9225 7.87153C14.9309 7.93541 14.9895 7.98038 15.0534 7.97197Z" fill="#07038D"/>
</g>
<defs>
<clipPath id="clip0_2454_1583">
<rect x="0.385742" y="0.5" width="30" height="20" rx="2" fill="white"/>
</clipPath>
</defs>
</svg>
