<svg width="30" height="30" viewBox="0 0 30 30" fill="none" xmlns="http://www.w3.org/2000/svg">
<path d="M28.3333 15C28.3333 16.751 27.9884 18.4849 27.3183 20.1027C26.6482 21.7205 25.666 23.1904 24.4278 24.4286C23.1897 25.6667 21.7197 26.6489 20.102 27.319C18.4842 27.9891 16.7503 28.334 14.9993 28.334C13.2482 28.334 11.5143 27.9891 9.89658 27.319C8.27883 26.6489 6.8089 25.6667 5.57072 24.4286C4.33255 23.1904 3.35037 21.7205 2.68027 20.1027C2.01018 18.4849 1.66528 16.751 1.66528 15C1.66528 11.4636 3.07011 8.07205 5.57072 5.57144C8.07133 3.07083 11.4629 1.666 14.9993 1.666C18.5357 1.666 21.9272 3.07083 24.4278 5.57144C26.9285 8.07205 28.3333 11.4636 28.3333 15Z" stroke="#888888" stroke-width="2"/>
<path d="M20.3334 15C20.3334 16.7507 20.1947 18.4853 19.9267 20.1027C19.66 21.72 19.2667 23.1893 18.7707 24.428C18.276 25.6667 17.688 26.648 17.0414 27.3187C16.3934 27.988 15.7 28.3333 15 28.3333C14.3 28.3333 13.6067 27.988 12.96 27.3187C12.312 26.648 11.724 25.6653 11.2294 24.428C10.7334 23.1893 10.34 21.7213 10.072 20.1027C9.79857 18.4156 9.66301 16.7091 9.6667 15C9.6667 13.2493 9.80403 11.5147 10.072 9.89733C10.34 8.28 10.7334 6.81066 11.2294 5.572C11.724 4.33333 12.312 3.352 12.9587 2.68133C13.6067 2.01333 14.3 1.66666 15 1.66666C15.7 1.66666 16.3934 2.012 17.04 2.68133C17.688 3.352 18.276 4.33466 18.7707 5.572C19.2667 6.81066 19.66 8.27866 19.9267 9.89733C20.196 11.5147 20.3334 13.2493 20.3334 15Z" stroke="#888888" stroke-width="2"/>
<path d="M1.66675 15H28.3334" stroke="#888888" stroke-width="2" stroke-linecap="round"/>
</svg>
