<svg width="32" height="32" viewBox="0 0 32 32" fill="none" xmlns="http://www.w3.org/2000/svg">
<path fill-rule="evenodd" clip-rule="evenodd" d="M6.86055 18.3351C6.89478 18.4665 6.97338 18.5677 7.09636 18.6387L18.3552 25.1378C18.4776 25.2085 18.6042 25.2265 18.735 25.192C18.8658 25.1574 18.9667 25.0786 19.0377 24.9557C19.1087 24.8327 19.1266 24.7056 19.0915 24.5745C19.0569 24.4437 18.9782 24.3428 18.8552 24.2718L17.8887 23.7138L21.8502 16.8523C22.5032 15.7212 22.7197 14.5195 22.4998 13.2471C22.2799 11.9746 21.6812 10.9157 20.7035 10.0703L20.9765 9.59747C21.1152 9.3573 21.1486 9.10408 21.0768 8.83783C21.005 8.57157 20.849 8.36912 20.6088 8.23045C20.3686 8.09178 20.1159 8.05824 19.8505 8.12983C19.5855 8.20084 19.3835 8.35672 19.2445 8.59747L18.9715 9.07032C17.7502 8.64697 16.5338 8.65788 15.3222 9.10307C14.1106 9.54826 13.1782 10.3367 12.5248 11.4683L8.56334 18.3298L7.59686 17.7718C7.47537 17.7009 7.34877 17.6828 7.21705 17.7176C7.08534 17.7524 6.98444 17.8312 6.91435 17.9539C6.84426 18.0767 6.82633 18.2037 6.86055 18.3351Z" fill="black"/>
<path d="M11.4154 24.1518C11.0298 23.9292 10.7798 23.602 10.6657 23.1705C10.5515 22.7389 10.6052 22.3311 10.8269 21.9472L13.6242 23.5622C13.4008 23.949 13.0734 24.1995 12.6418 24.3137C12.2096 24.4275 11.8005 24.3742 11.4154 24.1518Z" fill="black"/>
</svg>
