<svg xmlns="http://www.w3.org/2000/svg" width="24" height="24" viewBox="0 0 24 24" fill="none">
<path d="M15.0002 22.007H5.00019V20.007H15.0002V22.007ZM22.0002 4L17.2652 9.955L17.0452 10.225L11.4152 17.415C11.2294 17.6008 11.0088 17.7482 10.766 17.8488C10.5232 17.9494 10.263 18.0011 10.0002 18.0011C9.7374 18.0011 9.47719 17.9494 9.2344 17.8488C8.99161 17.7482 8.77101 17.6008 8.58519 17.415C8.39937 17.2292 8.25197 17.0086 8.15141 16.7658C8.05084 16.523 7.99908 16.2628 7.99908 16C7.99908 15.7372 8.05084 15.477 8.15141 15.2342C8.25197 14.9914 8.39937 14.7708 8.58519 14.585L22.0002 4ZM2.64519 7.234C1.20045 9.54743 0.680903 12.3205 1.19019 15H2.00019V14C1.99025 12.0311 2.57969 10.1058 3.69019 8.48L2.64519 7.234ZM12.0002 2C10.4708 1.99991 8.95836 2.3199 7.56008 2.93939C6.16179 3.55888 4.90863 4.46416 3.88119 5.597L5.02519 6.96C6.38282 5.7119 8.15609 5.01329 10.0002 5C11.8543 5.01273 13.6367 5.71826 14.9972 6.978L18.5472 4.176C16.6567 2.76351 14.3601 2.00021 12.0002 2ZM18.8302 11.2L18.5972 11.487L17.8692 12.417C17.9548 12.9404 17.9986 13.4697 18.0002 14V15H22.8102C23.2846 12.4974 22.866 9.90765 21.6272 7.682L18.8302 11.2Z" fill="#D5202F"/>
<!-- Code injected by live-server -->

</svg>