<svg width="221" height="220" viewBox="0 0 221 220" fill="none" xmlns="http://www.w3.org/2000/svg">
<path d="M110.576 10C123.708 10 136.712 12.5866 148.845 17.612C160.977 22.6375 172.001 30.0035 181.287 39.2893C190.573 48.5752 197.939 59.5991 202.964 71.7317C207.99 83.8642 210.576 96.8678 210.576 110C210.576 123.132 207.99 136.136 202.964 148.268C197.939 160.401 190.573 171.425 181.287 180.711C172.001 189.997 160.977 197.362 148.844 202.388C136.712 207.413 123.708 210 110.576 210C97.4439 210 84.4404 207.413 72.3078 202.388C60.1752 197.362 49.1513 189.997 39.8655 180.711C30.5796 171.425 23.2137 160.401 18.1882 148.268C13.1627 136.136 10.5762 123.132 10.5762 110C10.5762 96.8678 13.1628 83.8642 18.1882 71.7316C23.2137 59.599 30.5797 48.5751 39.8655 39.2893C49.1514 30.0034 60.1753 22.6375 72.3079 17.612C84.4404 12.5866 97.444 9.99999 110.576 10L110.576 10Z" stroke="#EEEEEE" stroke-width="20" stroke-linecap="round" stroke-linejoin="round"/>
<path d="M110.576 10C129.018 10 147.101 15.0999 162.826 24.736C178.551 34.372 191.304 48.1688 199.677 64.6009C208.049 81.0331 211.715 99.4605 210.268 117.846C208.821 136.231 202.318 153.858 191.478 168.779C180.638 183.699 165.883 195.33 148.845 202.388C131.806 209.445 113.148 211.654 94.9327 208.769C76.7176 205.884 59.655 198.018 45.6314 186.041C31.6078 174.063 21.1695 158.441 15.4705 140.902" stroke="#D5202F" stroke-width="20" stroke-linecap="round" stroke-linejoin="round"/>
<path d="M80.752 122L91.664 101.456V102.864H79.76V99.44H95.472V102.512L85.264 122H80.752ZM106.788 122.32C105.017 122.32 103.513 121.872 102.276 120.976C101.06 120.059 100.132 118.736 99.4915 117.008C98.8728 115.28 98.5635 113.168 98.5635 110.672C98.5635 108.155 98.8728 106.043 99.4915 104.336C100.132 102.608 101.06 101.307 102.276 100.432C103.513 99.5573 105.017 99.12 106.788 99.12C108.58 99.12 110.084 99.5573 111.3 100.432C112.537 101.307 113.465 102.597 114.083 104.304C114.702 106.011 115.012 108.123 115.012 110.64C115.012 113.136 114.692 115.259 114.052 117.008C113.433 118.736 112.516 120.059 111.3 120.976C110.084 121.872 108.58 122.32 106.788 122.32ZM106.788 118.96C108.238 118.96 109.305 118.299 109.988 116.976C110.692 115.632 111.044 113.52 111.044 110.64C111.044 107.781 110.692 105.712 109.988 104.432C109.305 103.131 108.238 102.48 106.788 102.48C105.358 102.48 104.292 103.131 103.588 104.432C102.884 105.712 102.532 107.792 102.532 110.672C102.532 113.531 102.884 115.632 103.588 116.976C104.292 118.299 105.358 118.96 106.788 118.96ZM126.231 122.896L123.607 121.36L136.791 98.544L139.383 100.08L126.231 122.896ZM123.479 112.912C122.284 112.912 121.26 112.635 120.407 112.08C119.554 111.525 118.903 110.736 118.455 109.712C118.007 108.667 117.783 107.429 117.783 106C117.783 103.867 118.284 102.192 119.287 100.976C120.29 99.7387 121.687 99.12 123.479 99.12C124.674 99.12 125.698 99.3973 126.551 99.952C127.404 100.507 128.055 101.296 128.503 102.32C128.951 103.344 129.175 104.571 129.175 106C129.175 107.429 128.951 108.667 128.503 109.712C128.055 110.736 127.404 111.525 126.551 112.08C125.698 112.635 124.674 112.912 123.479 112.912ZM123.479 110.224C124.247 110.224 124.844 109.883 125.271 109.2C125.698 108.496 125.911 107.429 125.911 106C125.911 104.571 125.698 103.515 125.271 102.832C124.844 102.149 124.247 101.808 123.479 101.808C122.711 101.808 122.114 102.149 121.687 102.832C121.26 103.493 121.047 104.549 121.047 106C121.047 107.451 121.26 108.517 121.687 109.2C122.114 109.883 122.711 110.224 123.479 110.224ZM139.543 122.32C138.348 122.32 137.324 122.043 136.471 121.488C135.618 120.933 134.967 120.144 134.519 119.12C134.071 118.075 133.847 116.837 133.847 115.408C133.847 113.275 134.348 111.6 135.351 110.384C136.354 109.147 137.751 108.528 139.543 108.528C140.738 108.528 141.762 108.805 142.615 109.36C143.468 109.915 144.119 110.704 144.567 111.728C145.015 112.752 145.239 113.979 145.239 115.408C145.239 116.837 145.015 118.075 144.567 119.12C144.119 120.144 143.468 120.933 142.615 121.488C141.762 122.043 140.738 122.32 139.543 122.32ZM139.543 119.632C140.311 119.632 140.908 119.291 141.335 118.608C141.762 117.904 141.975 116.837 141.975 115.408C141.975 113.979 141.762 112.923 141.335 112.24C140.908 111.557 140.311 111.216 139.543 111.216C138.775 111.216 138.178 111.557 137.751 112.24C137.324 112.901 137.111 113.957 137.111 115.408C137.111 116.859 137.324 117.925 137.751 118.608C138.178 119.291 138.775 119.632 139.543 119.632Z" fill="black"/>
</svg>
