<svg width="30" height="30" viewBox="0 0 30 30" fill="none" xmlns="http://www.w3.org/2000/svg">
<path d="M15.0001 1.66666C7.63608 1.66666 1.66675 7.636 1.66675 15C1.66675 22.364 7.63608 28.3333 15.0001 28.3333C22.3641 28.3333 28.3334 22.364 28.3334 15C28.3334 7.636 22.3641 1.66666 15.0001 1.66666Z" stroke="black" stroke-width="2" stroke-linecap="round" stroke-linejoin="round"/>
<path d="M4.6947 23.4613C4.6947 23.4613 7.6667 19.6667 15 19.6667C22.3334 19.6667 25.3067 23.4613 25.3067 23.4613M15 15C16.0609 15 17.0783 14.5786 17.8285 13.8284C18.5786 13.0783 19 12.0609 19 11C19 9.93913 18.5786 8.92172 17.8285 8.17157C17.0783 7.42143 16.0609 7 15 7C13.9392 7 12.9218 7.42143 12.1716 8.17157C11.4215 8.92172 11 9.93913 11 11C11 12.0609 11.4215 13.0783 12.1716 13.8284C12.9218 14.5786 13.9392 15 15 15Z" stroke="black" stroke-width="2" stroke-linecap="round" stroke-linejoin="round"/>
</svg>
